<?xml version="1.0" encoding="UTF-8"?><svg xmlns="http://www.w3.org/2000/svg" width="334.51" height="334.51" viewBox="0 0 334.51 334.51"><defs><style>.d{fill:#fff;}.e{stroke:#fff;stroke-linejoin:round;}.e,.f{fill:none;stroke-linecap:round;stroke-width:4px;}.f{stroke:#7bafd4;stroke-miterlimit:10;}</style></defs><g id="a"/><g id="b"><g id="c"><g><circle class="e" cx="167.26" cy="167.26" r="165.26"/><circle class="d" cx="167.26" cy="167.26" r="134.5"/><g><path class="f" d="M167.24,166.2l8.67,37.1s19.27-16.38,46.74-5.78c0,0-56.86,14.46-50.11,56.86h-9.64"/><path class="f" d="M166.76,166.2l-8.67,37.1s-19.27-16.38-46.74-5.78c0,0,56.86,14.46,50.11,56.86h9.64"/></g><g><path class="f" d="M236.99,133.34c-21.55-14.47-50.76-8.74-65.23,12.81"/><path class="f" d="M209.54,124.35c25.96,0,47.01,21.05,47.01,47.01"/><path class="f" d="M166.31,89.68c23.88,0,43.24,15.52,43.24,34.67"/><path class="f" d="M248.5,145.02c14.55,21.5,8.92,50.73-12.58,65.28"/><path class="f" d="M230.84,222.6c-11.91,19.25-37.12,25.24-56.3,13.38"/><path class="f" d="M231.13,187.08c9.92,16.52,3.93,38.33-13.36,48.71"/></g><g><path class="f" d="M97.52,133.34c21.55-14.47,50.76-8.74,65.23,12.81"/><path class="f" d="M124.97,124.35c-25.96,0-47.01,21.05-47.01,47.01"/><path class="f" d="M168.21,89.68c-23.88,0-43.24,15.52-43.24,34.67"/><path class="f" d="M86.02,145.02c-14.55,21.5-8.92,50.73,12.58,65.28"/><path class="f" d="M103.67,222.6c11.91,19.25,37.12,25.24,56.3,13.38"/><path class="f" d="M103.38,187.08c-9.92,16.52-3.93,38.33,13.36,48.71"/></g><path class="f" d="M84.32,243.68s12.17-20.62,23.53-14.36"/><path class="f" d="M98.07,212.49s-16.78,11.55-13.75,31.19"/><path class="f" d="M250.37,242.08s-12.17-20.62-23.53-14.36"/><path class="f" d="M236.62,210.89s16.78,11.55,13.75,31.19"/></g></g></g></svg>