<?xml version="1.0" encoding="UTF-8"?><svg xmlns="http://www.w3.org/2000/svg" width="334.51" height="334.51" viewBox="0 0 334.51 334.51"><defs><style>.d{stroke:#7bafd4;stroke-miterlimit:10;stroke-width:6px;}.d,.e{fill:none;stroke-linecap:round;}.f{fill:#fff;}.g{fill:#7bafd4;}.e{stroke:#fff;stroke-linejoin:round;stroke-width:4px;}</style></defs><g id="a"/><g id="b"><g id="c"><g><g><circle class="e" cx="167.26" cy="167.26" r="165.26"/><circle class="f" cx="167.26" cy="167.26" r="134.5"/></g><g><g><g><path class="d" d="M195.55,230.56h29.42c6.54,0,10.74-6.96,7.68-12.75"/><polygon class="g" points="199.05 242.53 178.33 230.56 199.05 218.6 199.05 242.53"/></g><g><path class="d" d="M115.26,192.44l-13.39,25.38c-3.06,5.79,1.14,12.75,7.68,12.75"/><polygon class="g" points="103.04 189.95 123.3 177.2 124.21 201.12 103.04 189.95"/></g><g><path class="d" d="M189.23,135.49l-14.29-26.91c-3.26-6.17-12.1-6.17-15.36,0"/><polygon class="g" points="198.15 126.78 197.3 150.7 177.02 138.01 198.15 126.78"/></g><path class="d" d="M232.6,217.51l-30.57-57.87"/><path class="d" d="M110.47,230.56h56.26"/><path class="d" d="M160.07,107.59l-31.14,58.95"/></g><g><path class="g" d="M145.97,184.57v-11.34h2.52v2.77l-.27-.36c.15-.39,.34-.75,.59-1.07s.55-.59,.9-.8c.27-.17,.57-.3,.89-.39s.65-.15,1-.18,.69-.02,1.03,.03v2.67c-.32-.1-.68-.13-1.1-.1-.42,.03-.79,.13-1.13,.29-.34,.15-.62,.36-.85,.61-.23,.26-.41,.56-.53,.9s-.18,.74-.18,1.17v5.8h-2.88Z"/><path class="g" d="M154.62,184.57v-15.12h6.38c.15,0,.34,0,.59,.02,.25,.01,.47,.03,.67,.07,.9,.14,1.64,.44,2.22,.89,.58,.46,1,1.03,1.28,1.72,.27,.69,.41,1.46,.41,2.3s-.14,1.62-.41,2.3-.7,1.26-1.28,1.72-1.31,.75-2.21,.89c-.2,.03-.42,.05-.67,.06-.25,.01-.45,.02-.59,.02h-3.53v5.12h-2.86Zm2.86-7.79h3.4c.15,0,.31,0,.48-.02,.17-.01,.34-.04,.48-.08,.38-.1,.68-.28,.89-.53,.21-.25,.35-.53,.44-.83,.08-.3,.12-.59,.12-.87s-.04-.56-.12-.87c-.08-.3-.23-.58-.44-.83-.21-.25-.51-.43-.89-.53-.15-.04-.31-.07-.48-.08-.17-.01-.34-.02-.48-.02h-3.4v4.66Z"/><path class="g" d="M168.27,184.57v-15.12h9.87v2.67h-7.01v3.23h5.75v2.67h-5.75v3.88h7.01v2.67h-9.87Z"/><path class="g" d="M184.17,184.57v-12.45h-4.77v-2.67h12.39v2.67h-4.77v12.45h-2.86Z"/></g></g></g></g></g></svg>