<?xml version="1.0" encoding="UTF-8"?><svg xmlns="http://www.w3.org/2000/svg" width="334.51" height="334.51" viewBox="0 0 334.51 334.51"><defs><style>.d{fill:#7bafd4;}.e{stroke:#fff;stroke-miterlimit:10;}.e,.f{fill:none;stroke-linecap:round;stroke-width:4px;}.f{stroke:#7bafd4;stroke-linejoin:round;}</style></defs><g id="a"/><g id="b"><g id="c"><g><g><circle class="f" cx="167.26" cy="167.26" r="165.26"/><circle class="d" cx="167.26" cy="167.26" r="134.5"/></g><g><g><path class="e" d="M82.99,179.45l6.59,38.43H241.09s7.69-10.43,0-19.21l10.43-30.74h-40.62s-1.1,12.08-10.43,12.08-117.47-.55-117.47-.55Z"/><line class="e" x1="85.86" y1="196.17" x2="198.27" y2="196.17"/><path class="e" d="M162.03,179.83v-62.97s-28.54-3.29-29.09,15.37c-.55,18.66-.24,47.46-.24,47.46"/></g><line class="e" x1="132.95" y1="132.24" x2="162.03" y2="132.24"/><line class="e" x1="95.37" y1="132.24" x2="121.33" y2="132.24"/><line class="e" x1="95.37" y1="140.53" x2="121.33" y2="140.53"/><line class="e" x1="95.37" y1="148.97" x2="120.94" y2="148.97"/><line class="e" x1="95.37" y1="157.41" x2="120.94" y2="157.41"/><line class="e" x1="95.37" y1="165.7" x2="121.33" y2="165.7"/><line class="e" x1="175.31" y1="132.24" x2="201.27" y2="132.24"/><line class="e" x1="175.31" y1="140.53" x2="201.27" y2="140.53"/><line class="e" x1="175.31" y1="148.97" x2="200.88" y2="148.97"/><line class="e" x1="175.31" y1="157.41" x2="200.88" y2="157.41"/><line class="e" x1="175.31" y1="165.7" x2="201.27" y2="165.7"/><line class="e" x1="211.43" y1="140.53" x2="237" y2="140.53"/><line class="e" x1="211.43" y1="148.97" x2="237" y2="148.97"/><line class="e" x1="211.43" y1="157.26" x2="237.39" y2="157.26"/><circle class="e" cx="147.33" cy="147.53" r="1.09"/><circle class="e" cx="147.49" cy="162.63" r="1.09"/><circle class="e" cx="227.06" cy="179.83" r="1.09"/></g></g></g></g></svg>