<?xml version="1.0" encoding="UTF-8"?><svg xmlns="http://www.w3.org/2000/svg" width="334.51" height="334.51" viewBox="0 0 334.51 334.51"><defs><style>.d{fill:#7bafd4;}.e,.f,.g,.h{fill:none;stroke-width:4px;}.e,.f,.h{stroke:#fff;stroke-miterlimit:10;}.e,.g,.h{stroke-linecap:round;}.g{stroke:#7bafd4;stroke-linejoin:round;}.h{stroke-dasharray:0 0 6 8;}</style></defs><g id="a"/><g id="b"><g id="c"><g><circle class="g" cx="167.26" cy="167.26" r="165.26"/><circle class="d" cx="167.26" cy="167.26" r="134.5"/></g><path class="f" d="M202.34,183.96c0-.08,0-.16-.04-.24l-.22-.52c-.5-1.4-1.08-2.77-1.73-4.09l-32.51-76.69c-.22-.52-.95-.52-1.17,0l-32.51,76.69c-.66,1.32-1.24,2.69-1.73,4.09l-.22,.52c-.03,.08-.03,.16-.04,.24-1.2,3.64-1.86,7.53-1.86,11.58,0,20.4,16.54,36.95,36.95,36.95s36.95-16.54,36.95-36.95c0-4.04-.66-7.93-1.86-11.58Z"/><path class="e" d="M141.94,191.64s-7.56,14.99,6.94,23.46"/><path class="h" d="M38.23,182.42s63.84,23.17,92.32,4.75"/><path class="h" d="M206.25,182.42s54.19-17.63,90.6,11.86"/><path class="h" d="M46.36,219.35s6.68-6.68,34.42,2.57c27.74,9.25,52.4-2.45,52.4-2.45"/><path class="h" d="M200.98,217.02s20.55-5.69,40.58,4.23,47.78-8.58,47.78-8.58"/><path class="h" d="M63.82,247.6s45.21,7.83,73.46,20.1,63.7-10.45,63.7-10.45c0,0,36.47-10.93,55.99,2.68"/></g></g></svg>