<?xml version="1.0" encoding="UTF-8"?><svg xmlns="http://www.w3.org/2000/svg" width="334.51" height="334.51" viewBox="0 0 334.51 334.51"><defs><style>.d{fill:#fff;}.e{fill:#7bafd4;}.f,.g,.h,.i{stroke:#fff;}.f,.g,.h,.i,.j{fill:none;}.f,.g,.h,.j{stroke-linecap:round;}.f,.g,.j{stroke-linejoin:round;}.f,.h{stroke-width:2px;}.g,.i,.j{stroke-width:4px;}.h,.i{stroke-miterlimit:10;}.j{stroke:#7bafd4;}</style></defs><g id="a"/><g id="b"><g id="c"><g><g><circle class="j" cx="167.26" cy="167.26" r="165.26"/><circle class="e" cx="167.26" cy="167.26" r="134.5"/></g><g><line class="g" x1="215.24" y1="175.55" x2="215.68" y2="180.76"/><path class="g" d="M225.18,157.12c5.72,0,10.35-4.28,10.35-9.55s-4.63-9.55-10.35-9.55"/><path class="g" d="M234.34,143.12v-20.23c0-.88,.04-1.75,.08-2.63,.1-2.05-1.56-7.58-8.66-10.16"/><g><g><circle class="i" cx="136.16" cy="115.47" r="20.85"/><circle class="i" cx="136.16" cy="167.26" r="20.85"/><circle class="i" cx="136.16" cy="219.04" r="20.85"/><polyline class="g" points="115.32 115.47 95.59 115.47 95.59 167.26 95.59 219.04 115.32 219.04"/><line class="g" x1="115.32" y1="167.26" x2="95.59" y2="167.26"/></g><g><polyline class="f" points="147.8 123.85 133.75 123.85 125.01 123.85 125.01 105.92"/><polygon class="d" points="127.38 108.71 125.01 106.33 122.63 108.71 122.63 106.69 125.01 104.32 127.38 106.69 127.38 108.71"/></g><line class="f" x1="135.21" y1="114.08" x2="135.21" y2="122.46"/><line class="f" x1="144.48" y1="107.76" x2="144.48" y2="123.19"/><polygon class="f" points="143.13 231.22 135.21 227.06 127.29 231.22 128.81 222.41 122.4 216.16 131.25 214.87 135.21 206.85 139.17 214.87 148.03 216.16 141.62 222.41 143.13 231.22"/><polyline class="f" points="133.06 220.15 135.21 222.38 138.72 218.1"/><path class="g" d="M168.32,223.95v-21.12s-1.74-20.92,23.24-22.08c0,0,12.78,15.69,24.11,0,0,0,12.81-2.13,19.39,7.14,1.72,2.41,2.66,5.29,2.89,8.24l.96,12.29"/><line class="g" x1="192.62" y1="175.34" x2="191.92" y2="180.54"/><path class="g" d="M225.18,157.12c0,10.55-7.69,19.17-17.08,19.17h-7.72c-9.4,0-17.08-8.63-17.08-19.17"/><path class="g" d="M225.18,136.89c0-10.55-7.69-19.17-17.08-19.17h-7.72c-9.4,0-17.08,8.63-17.08,19.17"/><path class="g" d="M183.29,157.12c-5.72,0-10.35-4.28-10.35-9.55s4.63-9.55,10.35-9.55"/><path class="g" d="M172.94,144.96v-20.04s-.61-20.38,18.97-20.61c19.59-.23,35.88,0,35.88,0,0,0-2.6,13.66-13.46,14.73"/><g><g><g><path class="h" d="M136.24,153.36c7.68,0,13.9,6.22,13.9,13.9"/><line class="h" x1="136.24" y1="153.36" x2="136.24" y2="157.12"/><line class="h" x1="146.09" y1="167.26" x2="149.85" y2="167.26"/><line class="h" x1="141.17" y1="156.48" x2="141.58" y2="155.49"/><line class="h" x1="145.43" y1="159.51" x2="146.18" y2="158.74"/><line class="h" x1="147.46" y1="163.47" x2="148.48" y2="163.13"/></g><g><path class="h" d="M136.24,153.36c-7.68,0-13.9,6.22-13.9,13.9"/><line class="h" x1="136.24" y1="153.36" x2="136.24" y2="157.12"/><line class="h" x1="126.39" y1="167.26" x2="122.63" y2="167.26"/><line class="h" x1="131.31" y1="156.48" x2="130.9" y2="155.49"/><line class="h" x1="127.05" y1="159.51" x2="126.3" y2="158.74"/><line class="h" x1="125.02" y1="163.47" x2="124" y2="163.13"/></g><g><path class="h" d="M136.24,181.16c-7.68,0-13.9-6.22-13.9-13.9"/><line class="h" x1="136.24" y1="181.16" x2="136.24" y2="177.4"/><line class="h" x1="126.39" y1="167.26" x2="122.63" y2="167.26"/><line class="h" x1="131.31" y1="178.03" x2="130.9" y2="179.03"/><line class="h" x1="127.05" y1="175" x2="126.3" y2="175.77"/><line class="h" x1="125.02" y1="171.05" x2="124" y2="171.39"/></g><g><path class="h" d="M136.24,181.16c7.68,0,13.9-6.22,13.9-13.9"/><line class="h" x1="136.24" y1="181.16" x2="136.24" y2="177.4"/><line class="h" x1="146.09" y1="167.26" x2="149.85" y2="167.26"/><line class="h" x1="141.17" y1="178.03" x2="141.58" y2="179.03"/><line class="h" x1="145.43" y1="175" x2="146.18" y2="175.77"/><line class="h" x1="147.46" y1="171.05" x2="148.48" y2="171.39"/></g></g><polyline class="h" points="136.24 163.47 136.24 167.26 142.36 173.36"/></g></g></g></g></g></g></svg>