<?xml version="1.0" encoding="UTF-8"?><svg xmlns="http://www.w3.org/2000/svg" width="334.51" height="334.51" viewBox="0 0 334.51 334.51"><defs><style>.d{fill:#7bafd4;}.e,.f{stroke-width:4px;}.e,.f,.g{fill:none;stroke-linecap:round;}.e,.g{stroke:#fff;stroke-miterlimit:10;}.f{stroke:#7bafd4;stroke-linejoin:round;}.g{stroke-dasharray:0 0 6 8;stroke-width:2px;}</style></defs><g id="a"/><g id="b"><g id="c"><g><g><circle class="f" cx="167.26" cy="167.26" r="165.26"/><circle class="d" cx="167.26" cy="167.26" r="134.5"/></g><g><path class="e" d="M167.26,84.92h-14.8s-14.45,32.46-51.29,14.25l-9.39,26.92s43.34,21.38,4.33,86.29l15.89,26.13s35.38-19,55.25,11.08"/><g><path class="e" d="M167.26,84.92h14.8s14.45,32.46,51.29,14.25l9.39,26.92s-43.34,21.38-4.33,86.29l-15.89,26.13s-35.38-19-55.25,11.08"/><path class="g" d="M167.26,109.62h10.36s10.11,22.72,35.9,9.98l6.57,18.84s-30.34,14.96-3.03,60.41l-11.13,18.29s-24.76-13.3-38.68,7.76"/></g><path class="g" d="M167.26,109.62h-10.36s-10.11,22.72-35.9,9.98l-6.57,18.84s30.34,14.96,3.03,60.41l11.13,18.29s24.76-13.3,38.68,7.76"/></g></g></g></g></svg>